<?xml version="1.0" encoding="UTF-8"?>
<svg id="uuid-ef4607d5-296f-402a-aa29-82397e14d3a1" data-name="Layer_1" xmlns="http://www.w3.org/2000/svg" xmlns:xlink="http://www.w3.org/1999/xlink" viewBox="0 0 283.46 283.46">
  <defs>
    <style>
      .uuid-3b408a2c-34aa-41b4-b3de-93b80c11dcbb, .uuid-bd50d15c-38dd-43ae-bde8-d52220250ecd {
        fill: #fff;
      }

      .uuid-bd50d15c-38dd-43ae-bde8-d52220250ecd {
        fill-rule: evenodd;
      }

      .uuid-3739649e-fd48-457e-866c-f53b26a4a306 {
        fill: #020000;
      }

      .uuid-05596f82-df0e-43f9-8c69-4daaa881bc11 {
        fill: url(#uuid-755eab0b-cf3b-4345-9dc1-8b0238b48c46);
      }
    </style>
    <linearGradient id="uuid-755eab0b-cf3b-4345-9dc1-8b0238b48c46" data-name="Dull Brass" x1="58.46" y1="203.83" x2="225" y2="203.83" gradientUnits="userSpaceOnUse">
      <stop offset="0" stop-color="#ebc17d"/>
      <stop offset=".19" stop-color="#dfb77c"/>
      <stop offset=".6" stop-color="#c08329"/>
      <stop offset=".87" stop-color="#eabe81"/>
      <stop offset="1" stop-color="#eedcc3"/>
    </linearGradient>
  </defs>
  <rect class="uuid-3739649e-fd48-457e-866c-f53b26a4a306" width="283.46" height="283.46"/>
  <g>
    <path class="uuid-05596f82-df0e-43f9-8c69-4daaa881bc11" d="M101.86,184.44c-.42-.38-1.1-.56-2.02-.52-.92.04-1.43.46-1.5,1.27-.12.77-.93,1.8-2.46,3.09-1.52,1.29-3.11,2.46-4.77,3.5-1.58.99-3.24,2-4.96,3.03-.3.07-.63.24-1,.55-.05.05-.11.1-.17.14-1.04.62-1.66.99-1.87,1.12-.96.46-2.22.98-3.77,1.54-3.14,1.14-5.67,1.47-7.6,1.01-.69-.12-1.04-1.16-1.04-3.12.12-.15.34-.19.66-.12.33.08.86.12,1.59.12s1.37-.12,1.91-.35c1.54-.54,3.62-1.95,6.24-4.22,1.16-1.16,1.6-3.16,1.33-6.01-.23-2.23-2.58-2.14-7.05.29-2.74,1.5-4.72,2.87-5.95,4.1-1.16,1.16-2.73,2.5-4.71,4.04-1.98,1.54-3.73,2.7-5.23,3.47-.46.27-.78.57-.95.9-.17.33-.07.57.32.72.81.35,1.73.35,2.75,0,1.02-.35,2.04-.84,3.06-1.47,1.02-.64,1.7-.99,2.05-1.07.12-.04.21.05.29.26.08.21.14.5.2.87.06.37.14.78.26,1.24s.3.92.55,1.39c.25.46.55.88.9,1.24s.84.66,1.47.9,1.36.33,2.17.29c2.2,0,4.6-.5,7.22-1.5,2.02-.77,3.81-1.69,5.37-2.74,1.2-.42,2.69-1.1,4.51-2.06,2.62-1.39,4.97-2.98,7.05-4.8,1.46-1.27,2.33-1.91,2.6-1.91.19,0,.25.19.17.58-.19.96-.45,1.84-.78,2.63-.33.79-.76,1.65-1.3,2.57-.54.92-.92,1.66-1.16,2.2-1.46,2.27-3.47,4.18-6.01,5.72-.5.31-.92.48-1.27.52-.46.04-.62-.23-.46-.81.23-.89.79-1.5,1.68-1.85.81-.38,1.11-.85.9-1.39-.21-.54-.59-.81-1.13-.81-1.12-.04-2.31.58-3.58,1.85-.46.46-.8,1.14-1.01,2.02-.21.89,0,1.73.66,2.54.65.81,1.85,1.19,3.58,1.16,2.04-.04,3.95-.83,5.72-2.37,1.77-1.54,3.13-3.17,4.07-4.88.94-1.71,1.65-3.4,2.11-5.06.65-2,.98-4.08.98-6.24s-.21-3.35-.64-3.58ZM71.92,191.83c.5-.73,2.58-2.16,6.24-4.28l.64-.29c.46-.19.81-.23,1.04-.12.12.04.19.1.23.17.04.23-.44.98-1.44,2.25-.15.27-.39.52-.69.75-.31.23-.68.47-1.13.72-.44.25-.81.44-1.1.58-.29.14-.69.32-1.21.55-.52.23-.82.37-.9.41-.77.42-1.31.44-1.62.06-.27-.31-.29-.58-.06-.81ZM183.08,191.92c.13-.33.21-.61.23-.84.02-.23,0-.49-.09-.78-.08-.29-.15-.51-.23-.66-.08-.15-.2-.38-.37-.66-.17-.29-.28-.49-.32-.61-.43-.89-1.91-.94-4.45-.17-.35.12-1.13.65-2.34,1.59-1.21.94-2.4,1.92-3.55,2.92-1.15,1-2.4,2.08-3.73,3.24-1.33,1.16-2.07,1.79-2.22,1.91-.73.66-1.23,1-1.5,1.04-.15,0-.17-.12-.06-.35.08-.19,1.21-1.97,3.41-5.35,2.2-3.37,3.47-5.29,3.81-5.75.62-.89.92-1.89.92-3,0-.73-.65-1.1-1.94-1.1s-2.19.25-2.69.75c-.62.62-2.87,2.52-6.76,5.72-3.89,3.2-6.22,5.01-6.99,5.43l-.06.12c-.87.52-1.82,1.03-2.86,1.52-1.91.91-3.61,1.36-5.11,1.36-.58,0-1-.06-1.27-.17s-.37-.31-.29-.58c.08-.27.18-.51.32-.72.13-.21.38-.53.72-.95.35-.5.6-.87.75-1.1.92-1.31,1.92-2.47,2.98-3.5,1.06-1.02,1.87-1.75,2.43-2.2.56-.44.84-.8.84-1.07,0-.77-.6-1.31-1.79-1.62-.35-.12-.92-.21-1.74-.29l-1.16,1.16-1.79,1.91c-.27.31-.49.28-.66-.09-.17-.37-.34-.95-.49-1.76-.15-.81-.27-1.33-.35-1.56-.19-.42-.53-.72-1.01-.9-.48-.17-1.12-.19-1.91-.06-.79.14-1.68.41-2.66.84-.98.42-2.11,1.05-3.38,1.88-1.27.83-2.6,1.8-3.99,2.92-2.62,2-5.03,3.72-7.24,5.17-1.66.82-3.63,1.66-5.93,2.54-5.01,1.91-8.13,2.59-9.36,2.05-1.81-.89-1-3.62,2.43-8.21.92-1.12,2.22-2.38,3.87-3.79,1.66-1.41,2.98-2.42,3.99-3.03.96-.62,1.77-.92,2.43-.92.46-.04.6.14.4.52-.23.5-.82,1.29-1.76,2.37-.94,1.08-1.57,1.62-1.88,1.62h-1.27c-.15,0-.32.05-.49.14-.17.1-.32.24-.43.43-.12.42.03.95.43,1.59.4.64.93.95,1.59.95,1.81-.08,3.68-1.41,5.61-3.99,1.04-1.39,1.63-2.69,1.76-3.9.13-1.21-.11-1.99-.72-2.34-1.23-.92-2.35-1.31-3.35-1.16-.96.08-2.9,1.08-5.81,3-2.91,1.93-5.23,4.08-6.96,6.47-2.7,3.62-3.87,6.76-3.52,9.42.12.85.62,1.72,1.5,2.6.89.89,1.96,1.37,3.24,1.45,1.35,0,3.99-.77,7.92-2.31,1.15-.45,2.23-.9,3.28-1.34.33-.01.67-.07,1.06-.22.5-.19,1.01-.41,1.53-.66.52-.25,1.06-.55,1.62-.9.36-.23.66-.42.92-.59.5-.25,1-.51,1.47-.76,0,.17,0,.44-.05.83-.39,2.54.39,3.99,2.31,4.33,1.54.35,3.26-.1,5.14-1.33,1.31-.81,2.47-1.62,3.47-2.43.81-.5,1.46-.96,1.96-1.39-.27.81-.39,1.56-.35,2.25,0,1.58.71,2.54,2.14,2.89,1.46.35,3.59-.05,6.39-1.18,2.07-.84,3.84-1.68,5.31-2.52.03,0,.05,0,.09,0,.62-.08,1.68-.65,3.18-1.73,1.5-1.08,3.07-2.29,4.71-3.64s2.65-2.14,3.03-2.37c.5-.35.79-.49.87-.43.08.06-.1.45-.52,1.19-.39.62-.64,1.06-.75,1.33-.62,1.19-2.2,3.88-4.74,8.06-2.54,4.18-4.41,7.02-5.61,8.53-.62.89-1.88,2.49-3.79,4.83-1.91,2.33-3.56,4.44-4.97,6.33-1.41,1.89-2.15,3.12-2.22,3.7-.04.23-.09.47-.14.72-.06.25-.09.43-.09.55s0,.21-.03.29c-.02.08.03.17.14.29.12.11.21.21.29.29.08.08.27.23.58.46.12.08.23.17.35.29.42.42.79.58,1.1.46,1.08-.46,4.1-4.7,9.07-12.71,2.23-3.62,4.54-6.78,6.91-9.48,2.37-2.7,4.28-4.6,5.75-5.72,1.46-1.12,2.92-2.14,4.36-3.06,1.44-.92,2.28-1.48,2.51-1.68,1.89-1.73,3.47-2.6,4.74-2.6.23,0,.05.37-.55,1.1-.6.73-1.41,1.67-2.43,2.8-1.02,1.14-1.72,1.97-2.11,2.51-.35.5-.82.82-1.42.95-.6.14-1.15.15-1.65.06-.5-.1-.93-.1-1.3,0-.37.1-.53.34-.49.72.08.66.5,1.33,1.27,2.02.77.69,1.81.96,3.12.81,1.31-.15,2.54-1.06,3.7-2.72,2.93-4.24,4.64-6.66,5.14-7.28.27-.35.47-.68.61-1.01ZM142.6,190.71c-.08.75-.29,1.24-.64,1.47-3.28,2.66-5.07,4.12-5.37,4.39-2.31,1.77-3.81,2.39-4.51,1.85-.58-.46-.48-1.44.29-2.92.77-1.48,1.93-2.97,3.47-4.45,1.54-1.48,2.95-2.42,4.22-2.8.92-.27,1.6-.12,2.02.46.42.58.6,1.24.52,1.99ZM224.37,184.44c-.42-.38-1.1-.56-2.02-.52-.92.04-1.43.46-1.5,1.27-.11.77-.93,1.8-2.46,3.09-1.52,1.29-3.11,2.46-4.77,3.5-1.58.99-3.24,2-4.96,3.03-.3.07-.63.24-1,.55-.05.05-.11.1-.17.14-1.04.62-1.66.99-1.87,1.12-.96.46-2.22.98-3.77,1.54-3.14,1.14-5.67,1.47-7.6,1.01-.69-.12-1.04-1.16-1.04-3.12.11-.15.34-.19.66-.12.33.08.86.12,1.59.12s1.37-.12,1.91-.35c1.54-.54,3.62-1.95,6.24-4.22,1.15-1.16,1.6-3.16,1.33-6.01-.23-2.23-2.58-2.14-7.05.29-2.74,1.5-4.72,2.87-5.95,4.1-1.16,1.16-2.73,2.5-4.71,4.04-1.98,1.54-3.73,2.7-5.23,3.47-.46.27-.78.57-.95.9-.17.33-.07.57.32.72.81.35,1.73.35,2.75,0,1.02-.35,2.04-.84,3.06-1.47,1.02-.64,1.71-.99,2.05-1.07.11-.04.21.05.29.26.08.21.14.5.2.87.06.37.14.78.26,1.24.11.46.3.92.55,1.39.25.46.55.88.9,1.24.35.37.84.66,1.47.9s1.36.33,2.17.29c2.2,0,4.6-.5,7.22-1.5,2.02-.77,3.81-1.69,5.37-2.74,1.2-.42,2.69-1.1,4.51-2.06,2.62-1.39,4.97-2.98,7.05-4.8,1.46-1.27,2.33-1.91,2.6-1.91.19,0,.25.19.17.58-.19.96-.45,1.84-.78,2.63-.33.79-.76,1.65-1.3,2.57-.54.92-.92,1.66-1.16,2.2-1.46,2.27-3.47,4.18-6.01,5.72-.5.31-.92.48-1.27.52-.46.04-.62-.23-.46-.81.23-.89.79-1.5,1.68-1.85.81-.38,1.11-.85.9-1.39-.21-.54-.59-.81-1.13-.81-1.12-.04-2.31.58-3.58,1.85-.46.46-.8,1.14-1.01,2.02-.21.89,0,1.73.66,2.54.65.81,1.85,1.19,3.58,1.16,2.04-.04,3.95-.83,5.72-2.37,1.77-1.54,3.13-3.17,4.07-4.88.94-1.71,1.65-3.4,2.11-5.06.65-2,.98-4.08.98-6.24s-.21-3.35-.64-3.58ZM194.43,191.83c.5-.73,2.58-2.16,6.24-4.28l.64-.29c.46-.19.81-.23,1.04-.12.11.04.19.1.23.17.04.23-.44.98-1.44,2.25-.15.27-.39.52-.69.75-.31.23-.68.47-1.13.72-.44.25-.81.44-1.1.58-.29.14-.69.32-1.21.55-.52.23-.82.37-.9.41-.77.42-1.31.44-1.62.06-.27-.31-.29-.58-.06-.81Z"/>
    <g>
      <path class="uuid-3b408a2c-34aa-41b4-b3de-93b80c11dcbb" d="M56.25,166.27h-11.15v-.93c3,0,3.79-2.57,3.79-7.43v-34.3c0-4.43-.64-6.72-3.79-6.72v-.93h11.15v50.31ZM61.82,116.96v-1h18.22v12.86h-.93c-.64-10.36-9.58-11.65-17.29-11.86ZM61.82,141.4v-1.07c3.57-.14,8.58-.86,9.08-7.15h.93v15.36h-.93c-.5-6.22-5.57-7-9.08-7.15ZM80.97,166.27h-19.15v-1c7.93-.21,17.01-1.5,18.22-13.87h.93v14.87Z"/>
      <path class="uuid-3b408a2c-34aa-41b4-b3de-93b80c11dcbb" d="M100.28,166.27h-11.15v-.93c3.07,0,3.93-2.72,3.93-7.57v-34.88c0-4.36-1.43-6-4.5-6v-.93h16.94v.93c-3.07,0-5.22,1.21-5.22,6.36v43.02ZM124.72,166.27h-18.87v-1c8.5-.21,17.01-2,18.01-14.51h.86v15.51Z"/>
      <path class="uuid-3b408a2c-34aa-41b4-b3de-93b80c11dcbb" d="M150.09,115.96v.93c-3.07,0-5,1.21-5,5.65v36.09c0,4.86,2,6.72,5,6.72v.93h-17.37v-.93c3.07,0,5-1.86,5-6.72v-36.09c0-4.43-1.86-5.65-5-5.65v-.93h17.37Z"/>
      <path class="uuid-3b408a2c-34aa-41b4-b3de-93b80c11dcbb" d="M198.7,115.96v12.58h-.93c-.29-11.51-12.22-11.65-13.22-11.65h-4.22v42.45c0,4.72,2.22,6,5.22,6v.93h-17.44v-.93c3,0,5.15-1.29,5.15-6v-42.45h-4.22c-2.22,0-12.86.14-13.15,11.65h-.93v-12.58h43.74Z"/>
      <path class="uuid-3b408a2c-34aa-41b4-b3de-93b80c11dcbb" d="M213.64,166.27h-11.15v-.93c3,0,3.79-2.57,3.79-7.43v-34.3c0-4.43-.64-6.72-3.79-6.72v-.93h11.15v50.31ZM219.21,116.96v-1h18.22v12.86h-.93c-.64-10.36-9.58-11.65-17.3-11.86ZM219.21,141.4v-1.07c3.57-.14,8.58-.86,9.08-7.15h.93v15.36h-.93c-.5-6.22-5.57-7-9.08-7.15ZM238.37,166.27h-19.15v-1c7.93-.21,17.01-1.5,18.22-13.87h.93v14.87Z"/>
    </g>
    <path class="uuid-bd50d15c-38dd-43ae-bde8-d52220250ecd" d="M133.19,80.62h0s0,0,0,0ZM129.89,90.61h-8.59l-5.77-9.99h8.59l5.77,9.99ZM129.67,80.62l-2.77-4.8h-19.68l2.77,4.8,5.77,9.99,2.77,4.8h19.68l-2.77-4.8-5.77-9.99ZM150.27,80.62h0s0,0,0,0ZM153.57,90.61h8.59l5.77-9.99h-8.59l-5.77,9.99ZM141.73,99.45h20.87l-2.77,4.8h-36.2l-2.77-4.8h20.87ZM153.79,80.62l2.77-4.8h19.68l-2.77,4.8-5.77,9.99-2.77,4.8h-19.68l2.77-4.8,5.77-9.99ZM141.73,85.81l-2.99-5.19-2.77-4.8,5.77-9.99,5.77,9.99-2.77,4.8-2.99,5.19ZM138.96,90.61l2.77,4.8,2.77-4.8,5.77-9.99h0l2.77-4.8-2.77-4.8-8.54-14.79-8.54,14.79-2.77,4.8,2.77,4.8h0l5.77,9.99Z"/>
  </g>
</svg>